<svg xmlns="http://www.w3.org/2000/svg" viewBox="0 0 100 100" preserveAspectRatio="xMidYMid" width="200" height="200" style="shape-rendering: auto; display: block; background: transparent;" xmlns:xlink="http://www.w3.org/1999/xlink"><g><g transform="rotate(0 50 50)">
  <rect fill="#0099e5" height="12" width="2" ry="6" rx="1" y="20" x="49">
    <animate repeatCount="indefinite" begin="-1.2222222222222223s" dur="1.2345679012345678s" keyTimes="0;1" values="1;0" attributeName="opacity"></animate>
  </rect>
</g><g transform="rotate(3.6 50 50)">
  <rect fill="#ff4c4c" height="12" width="2" ry="6" rx="1" y="20" x="49">
    <animate repeatCount="indefinite" begin="-1.2098765432098766s" dur="1.2345679012345678s" keyTimes="0;1" values="1;0" attributeName="opacity"></animate>
  </rect>
</g><g transform="rotate(7.2 50 50)">
  <rect fill="#34bf49" height="12" width="2" ry="6" rx="1" y="20" x="49">
    <animate repeatCount="indefinite" begin="-1.1975308641975309s" dur="1.2345679012345678s" keyTimes="0;1" values="1;0" attributeName="opacity"></animate>
  </rect>
</g><g transform="rotate(10.8 50 50)">
  <rect fill="#0099e5" height="12" width="2" ry="6" rx="1" y="20" x="49">
    <animate repeatCount="indefinite" begin="-1.1851851851851851s" dur="1.2345679012345678s" keyTimes="0;1" values="1;0" attributeName="opacity"></animate>
  </rect>
</g><g transform="rotate(14.4 50 50)">
  <rect fill="#ff4c4c" height="12" width="2" ry="6" rx="1" y="20" x="49">
    <animate repeatCount="indefinite" begin="-1.1728395061728396s" dur="1.2345679012345678s" keyTimes="0;1" values="1;0" attributeName="opacity"></animate>
  </rect>
</g><g transform="rotate(18 50 50)">
  <rect fill="#34bf49" height="12" width="2" ry="6" rx="1" y="20" x="49">
    <animate repeatCount="indefinite" begin="-1.1604938271604939s" dur="1.2345679012345678s" keyTimes="0;1" values="1;0" attributeName="opacity"></animate>
  </rect>
</g><g transform="rotate(21.6 50 50)">
  <rect fill="#0099e5" height="12" width="2" ry="6" rx="1" y="20" x="49">
    <animate repeatCount="indefinite" begin="-1.1481481481481481s" dur="1.2345679012345678s" keyTimes="0;1" values="1;0" attributeName="opacity"></animate>
  </rect>
</g><g transform="rotate(25.2 50 50)">
  <rect fill="#ff4c4c" height="12" width="2" ry="6" rx="1" y="20" x="49">
    <animate repeatCount="indefinite" begin="-1.1358024691358024s" dur="1.2345679012345678s" keyTimes="0;1" values="1;0" attributeName="opacity"></animate>
  </rect>
</g><g transform="rotate(28.8 50 50)">
  <rect fill="#34bf49" height="12" width="2" ry="6" rx="1" y="20" x="49">
    <animate repeatCount="indefinite" begin="-1.123456790123457s" dur="1.2345679012345678s" keyTimes="0;1" values="1;0" attributeName="opacity"></animate>
  </rect>
</g><g transform="rotate(32.4 50 50)">
  <rect fill="#0099e5" height="12" width="2" ry="6" rx="1" y="20" x="49">
    <animate repeatCount="indefinite" begin="-1.1111111111111112s" dur="1.2345679012345678s" keyTimes="0;1" values="1;0" attributeName="opacity"></animate>
  </rect>
</g><g transform="rotate(36 50 50)">
  <rect fill="#ff4c4c" height="12" width="2" ry="6" rx="1" y="20" x="49">
    <animate repeatCount="indefinite" begin="-1.0987654320987654s" dur="1.2345679012345678s" keyTimes="0;1" values="1;0" attributeName="opacity"></animate>
  </rect>
</g><g transform="rotate(39.6 50 50)">
  <rect fill="#34bf49" height="12" width="2" ry="6" rx="1" y="20" x="49">
    <animate repeatCount="indefinite" begin="-1.0864197530864197s" dur="1.2345679012345678s" keyTimes="0;1" values="1;0" attributeName="opacity"></animate>
  </rect>
</g><g transform="rotate(43.2 50 50)">
  <rect fill="#0099e5" height="12" width="2" ry="6" rx="1" y="20" x="49">
    <animate repeatCount="indefinite" begin="-1.0740740740740742s" dur="1.2345679012345678s" keyTimes="0;1" values="1;0" attributeName="opacity"></animate>
  </rect>
</g><g transform="rotate(46.8 50 50)">
  <rect fill="#ff4c4c" height="12" width="2" ry="6" rx="1" y="20" x="49">
    <animate repeatCount="indefinite" begin="-1.0617283950617284s" dur="1.2345679012345678s" keyTimes="0;1" values="1;0" attributeName="opacity"></animate>
  </rect>
</g><g transform="rotate(50.4 50 50)">
  <rect fill="#34bf49" height="12" width="2" ry="6" rx="1" y="20" x="49">
    <animate repeatCount="indefinite" begin="-1.0493827160493827s" dur="1.2345679012345678s" keyTimes="0;1" values="1;0" attributeName="opacity"></animate>
  </rect>
</g><g transform="rotate(54 50 50)">
  <rect fill="#0099e5" height="12" width="2" ry="6" rx="1" y="20" x="49">
    <animate repeatCount="indefinite" begin="-1.037037037037037s" dur="1.2345679012345678s" keyTimes="0;1" values="1;0" attributeName="opacity"></animate>
  </rect>
</g><g transform="rotate(57.6 50 50)">
  <rect fill="#ff4c4c" height="12" width="2" ry="6" rx="1" y="20" x="49">
    <animate repeatCount="indefinite" begin="-1.0246913580246915s" dur="1.2345679012345678s" keyTimes="0;1" values="1;0" attributeName="opacity"></animate>
  </rect>
</g><g transform="rotate(61.2 50 50)">
  <rect fill="#34bf49" height="12" width="2" ry="6" rx="1" y="20" x="49">
    <animate repeatCount="indefinite" begin="-1.0123456790123457s" dur="1.2345679012345678s" keyTimes="0;1" values="1;0" attributeName="opacity"></animate>
  </rect>
</g><g transform="rotate(64.8 50 50)">
  <rect fill="#0099e5" height="12" width="2" ry="6" rx="1" y="20" x="49">
    <animate repeatCount="indefinite" begin="-1s" dur="1.2345679012345678s" keyTimes="0;1" values="1;0" attributeName="opacity"></animate>
  </rect>
</g><g transform="rotate(68.4 50 50)">
  <rect fill="#ff4c4c" height="12" width="2" ry="6" rx="1" y="20" x="49">
    <animate repeatCount="indefinite" begin="-0.9876543209876543s" dur="1.2345679012345678s" keyTimes="0;1" values="1;0" attributeName="opacity"></animate>
  </rect>
</g><g transform="rotate(72 50 50)">
  <rect fill="#34bf49" height="12" width="2" ry="6" rx="1" y="20" x="49">
    <animate repeatCount="indefinite" begin="-0.9753086419753086s" dur="1.2345679012345678s" keyTimes="0;1" values="1;0" attributeName="opacity"></animate>
  </rect>
</g><g transform="rotate(75.6 50 50)">
  <rect fill="#0099e5" height="12" width="2" ry="6" rx="1" y="20" x="49">
    <animate repeatCount="indefinite" begin="-0.9629629629629629s" dur="1.2345679012345678s" keyTimes="0;1" values="1;0" attributeName="opacity"></animate>
  </rect>
</g><g transform="rotate(79.2 50 50)">
  <rect fill="#ff4c4c" height="12" width="2" ry="6" rx="1" y="20" x="49">
    <animate repeatCount="indefinite" begin="-0.9506172839506173s" dur="1.2345679012345678s" keyTimes="0;1" values="1;0" attributeName="opacity"></animate>
  </rect>
</g><g transform="rotate(82.8 50 50)">
  <rect fill="#34bf49" height="12" width="2" ry="6" rx="1" y="20" x="49">
    <animate repeatCount="indefinite" begin="-0.9382716049382716s" dur="1.2345679012345678s" keyTimes="0;1" values="1;0" attributeName="opacity"></animate>
  </rect>
</g><g transform="rotate(86.4 50 50)">
  <rect fill="#0099e5" height="12" width="2" ry="6" rx="1" y="20" x="49">
    <animate repeatCount="indefinite" begin="-0.9259259259259259s" dur="1.2345679012345678s" keyTimes="0;1" values="1;0" attributeName="opacity"></animate>
  </rect>
</g><g transform="rotate(90 50 50)">
  <rect fill="#ff4c4c" height="12" width="2" ry="6" rx="1" y="20" x="49">
    <animate repeatCount="indefinite" begin="-0.9135802469135802s" dur="1.2345679012345678s" keyTimes="0;1" values="1;0" attributeName="opacity"></animate>
  </rect>
</g><g transform="rotate(93.6 50 50)">
  <rect fill="#34bf49" height="12" width="2" ry="6" rx="1" y="20" x="49">
    <animate repeatCount="indefinite" begin="-0.9012345679012346s" dur="1.2345679012345678s" keyTimes="0;1" values="1;0" attributeName="opacity"></animate>
  </rect>
</g><g transform="rotate(97.2 50 50)">
  <rect fill="#0099e5" height="12" width="2" ry="6" rx="1" y="20" x="49">
    <animate repeatCount="indefinite" begin="-0.8888888888888888s" dur="1.2345679012345678s" keyTimes="0;1" values="1;0" attributeName="opacity"></animate>
  </rect>
</g><g transform="rotate(100.8 50 50)">
  <rect fill="#ff4c4c" height="12" width="2" ry="6" rx="1" y="20" x="49">
    <animate repeatCount="indefinite" begin="-0.8765432098765432s" dur="1.2345679012345678s" keyTimes="0;1" values="1;0" attributeName="opacity"></animate>
  </rect>
</g><g transform="rotate(104.4 50 50)">
  <rect fill="#34bf49" height="12" width="2" ry="6" rx="1" y="20" x="49">
    <animate repeatCount="indefinite" begin="-0.8641975308641975s" dur="1.2345679012345678s" keyTimes="0;1" values="1;0" attributeName="opacity"></animate>
  </rect>
</g><g transform="rotate(108 50 50)">
  <rect fill="#0099e5" height="12" width="2" ry="6" rx="1" y="20" x="49">
    <animate repeatCount="indefinite" begin="-0.8518518518518519s" dur="1.2345679012345678s" keyTimes="0;1" values="1;0" attributeName="opacity"></animate>
  </rect>
</g><g transform="rotate(111.6 50 50)">
  <rect fill="#ff4c4c" height="12" width="2" ry="6" rx="1" y="20" x="49">
    <animate repeatCount="indefinite" begin="-0.8395061728395061s" dur="1.2345679012345678s" keyTimes="0;1" values="1;0" attributeName="opacity"></animate>
  </rect>
</g><g transform="rotate(115.2 50 50)">
  <rect fill="#34bf49" height="12" width="2" ry="6" rx="1" y="20" x="49">
    <animate repeatCount="indefinite" begin="-0.8271604938271605s" dur="1.2345679012345678s" keyTimes="0;1" values="1;0" attributeName="opacity"></animate>
  </rect>
</g><g transform="rotate(118.8 50 50)">
  <rect fill="#0099e5" height="12" width="2" ry="6" rx="1" y="20" x="49">
    <animate repeatCount="indefinite" begin="-0.8148148148148148s" dur="1.2345679012345678s" keyTimes="0;1" values="1;0" attributeName="opacity"></animate>
  </rect>
</g><g transform="rotate(122.4 50 50)">
  <rect fill="#ff4c4c" height="12" width="2" ry="6" rx="1" y="20" x="49">
    <animate repeatCount="indefinite" begin="-0.8024691358024691s" dur="1.2345679012345678s" keyTimes="0;1" values="1;0" attributeName="opacity"></animate>
  </rect>
</g><g transform="rotate(126 50 50)">
  <rect fill="#34bf49" height="12" width="2" ry="6" rx="1" y="20" x="49">
    <animate repeatCount="indefinite" begin="-0.7901234567901234s" dur="1.2345679012345678s" keyTimes="0;1" values="1;0" attributeName="opacity"></animate>
  </rect>
</g><g transform="rotate(129.6 50 50)">
  <rect fill="#0099e5" height="12" width="2" ry="6" rx="1" y="20" x="49">
    <animate repeatCount="indefinite" begin="-0.7777777777777778s" dur="1.2345679012345678s" keyTimes="0;1" values="1;0" attributeName="opacity"></animate>
  </rect>
</g><g transform="rotate(133.2 50 50)">
  <rect fill="#ff4c4c" height="12" width="2" ry="6" rx="1" y="20" x="49">
    <animate repeatCount="indefinite" begin="-0.7654320987654321s" dur="1.2345679012345678s" keyTimes="0;1" values="1;0" attributeName="opacity"></animate>
  </rect>
</g><g transform="rotate(136.8 50 50)">
  <rect fill="#34bf49" height="12" width="2" ry="6" rx="1" y="20" x="49">
    <animate repeatCount="indefinite" begin="-0.7530864197530864s" dur="1.2345679012345678s" keyTimes="0;1" values="1;0" attributeName="opacity"></animate>
  </rect>
</g><g transform="rotate(140.4 50 50)">
  <rect fill="#0099e5" height="12" width="2" ry="6" rx="1" y="20" x="49">
    <animate repeatCount="indefinite" begin="-0.7407407407407407s" dur="1.2345679012345678s" keyTimes="0;1" values="1;0" attributeName="opacity"></animate>
  </rect>
</g><g transform="rotate(144 50 50)">
  <rect fill="#ff4c4c" height="12" width="2" ry="6" rx="1" y="20" x="49">
    <animate repeatCount="indefinite" begin="-0.7283950617283951s" dur="1.2345679012345678s" keyTimes="0;1" values="1;0" attributeName="opacity"></animate>
  </rect>
</g><g transform="rotate(147.6 50 50)">
  <rect fill="#34bf49" height="12" width="2" ry="6" rx="1" y="20" x="49">
    <animate repeatCount="indefinite" begin="-0.7160493827160493s" dur="1.2345679012345678s" keyTimes="0;1" values="1;0" attributeName="opacity"></animate>
  </rect>
</g><g transform="rotate(151.2 50 50)">
  <rect fill="#0099e5" height="12" width="2" ry="6" rx="1" y="20" x="49">
    <animate repeatCount="indefinite" begin="-0.7037037037037037s" dur="1.2345679012345678s" keyTimes="0;1" values="1;0" attributeName="opacity"></animate>
  </rect>
</g><g transform="rotate(154.8 50 50)">
  <rect fill="#ff4c4c" height="12" width="2" ry="6" rx="1" y="20" x="49">
    <animate repeatCount="indefinite" begin="-0.691358024691358s" dur="1.2345679012345678s" keyTimes="0;1" values="1;0" attributeName="opacity"></animate>
  </rect>
</g><g transform="rotate(158.4 50 50)">
  <rect fill="#34bf49" height="12" width="2" ry="6" rx="1" y="20" x="49">
    <animate repeatCount="indefinite" begin="-0.6790123456790124s" dur="1.2345679012345678s" keyTimes="0;1" values="1;0" attributeName="opacity"></animate>
  </rect>
</g><g transform="rotate(162 50 50)">
  <rect fill="#0099e5" height="12" width="2" ry="6" rx="1" y="20" x="49">
    <animate repeatCount="indefinite" begin="-0.6666666666666666s" dur="1.2345679012345678s" keyTimes="0;1" values="1;0" attributeName="opacity"></animate>
  </rect>
</g><g transform="rotate(165.6 50 50)">
  <rect fill="#ff4c4c" height="12" width="2" ry="6" rx="1" y="20" x="49">
    <animate repeatCount="indefinite" begin="-0.654320987654321s" dur="1.2345679012345678s" keyTimes="0;1" values="1;0" attributeName="opacity"></animate>
  </rect>
</g><g transform="rotate(169.2 50 50)">
  <rect fill="#34bf49" height="12" width="2" ry="6" rx="1" y="20" x="49">
    <animate repeatCount="indefinite" begin="-0.6419753086419753s" dur="1.2345679012345678s" keyTimes="0;1" values="1;0" attributeName="opacity"></animate>
  </rect>
</g><g transform="rotate(172.8 50 50)">
  <rect fill="#0099e5" height="12" width="2" ry="6" rx="1" y="20" x="49">
    <animate repeatCount="indefinite" begin="-0.6296296296296297s" dur="1.2345679012345678s" keyTimes="0;1" values="1;0" attributeName="opacity"></animate>
  </rect>
</g><g transform="rotate(176.4 50 50)">
  <rect fill="#ff4c4c" height="12" width="2" ry="6" rx="1" y="20" x="49">
    <animate repeatCount="indefinite" begin="-0.6172839506172839s" dur="1.2345679012345678s" keyTimes="0;1" values="1;0" attributeName="opacity"></animate>
  </rect>
</g><g transform="rotate(180 50 50)">
  <rect fill="#34bf49" height="12" width="2" ry="6" rx="1" y="20" x="49">
    <animate repeatCount="indefinite" begin="-0.6049382716049383s" dur="1.2345679012345678s" keyTimes="0;1" values="1;0" attributeName="opacity"></animate>
  </rect>
</g><g transform="rotate(183.6 50 50)">
  <rect fill="#0099e5" height="12" width="2" ry="6" rx="1" y="20" x="49">
    <animate repeatCount="indefinite" begin="-0.5925925925925926s" dur="1.2345679012345678s" keyTimes="0;1" values="1;0" attributeName="opacity"></animate>
  </rect>
</g><g transform="rotate(187.2 50 50)">
  <rect fill="#ff4c4c" height="12" width="2" ry="6" rx="1" y="20" x="49">
    <animate repeatCount="indefinite" begin="-0.5802469135802469s" dur="1.2345679012345678s" keyTimes="0;1" values="1;0" attributeName="opacity"></animate>
  </rect>
</g><g transform="rotate(190.8 50 50)">
  <rect fill="#34bf49" height="12" width="2" ry="6" rx="1" y="20" x="49">
    <animate repeatCount="indefinite" begin="-0.5679012345679012s" dur="1.2345679012345678s" keyTimes="0;1" values="1;0" attributeName="opacity"></animate>
  </rect>
</g><g transform="rotate(194.4 50 50)">
  <rect fill="#0099e5" height="12" width="2" ry="6" rx="1" y="20" x="49">
    <animate repeatCount="indefinite" begin="-0.5555555555555556s" dur="1.2345679012345678s" keyTimes="0;1" values="1;0" attributeName="opacity"></animate>
  </rect>
</g><g transform="rotate(198 50 50)">
  <rect fill="#ff4c4c" height="12" width="2" ry="6" rx="1" y="20" x="49">
    <animate repeatCount="indefinite" begin="-0.5432098765432098s" dur="1.2345679012345678s" keyTimes="0;1" values="1;0" attributeName="opacity"></animate>
  </rect>
</g><g transform="rotate(201.6 50 50)">
  <rect fill="#34bf49" height="12" width="2" ry="6" rx="1" y="20" x="49">
    <animate repeatCount="indefinite" begin="-0.5308641975308642s" dur="1.2345679012345678s" keyTimes="0;1" values="1;0" attributeName="opacity"></animate>
  </rect>
</g><g transform="rotate(205.2 50 50)">
  <rect fill="#0099e5" height="12" width="2" ry="6" rx="1" y="20" x="49">
    <animate repeatCount="indefinite" begin="-0.5185185185185185s" dur="1.2345679012345678s" keyTimes="0;1" values="1;0" attributeName="opacity"></animate>
  </rect>
</g><g transform="rotate(208.8 50 50)">
  <rect fill="#ff4c4c" height="12" width="2" ry="6" rx="1" y="20" x="49">
    <animate repeatCount="indefinite" begin="-0.5061728395061729s" dur="1.2345679012345678s" keyTimes="0;1" values="1;0" attributeName="opacity"></animate>
  </rect>
</g><g transform="rotate(212.4 50 50)">
  <rect fill="#34bf49" height="12" width="2" ry="6" rx="1" y="20" x="49">
    <animate repeatCount="indefinite" begin="-0.49382716049382713s" dur="1.2345679012345678s" keyTimes="0;1" values="1;0" attributeName="opacity"></animate>
  </rect>
</g><g transform="rotate(216 50 50)">
  <rect fill="#0099e5" height="12" width="2" ry="6" rx="1" y="20" x="49">
    <animate repeatCount="indefinite" begin="-0.48148148148148145s" dur="1.2345679012345678s" keyTimes="0;1" values="1;0" attributeName="opacity"></animate>
  </rect>
</g><g transform="rotate(219.6 50 50)">
  <rect fill="#ff4c4c" height="12" width="2" ry="6" rx="1" y="20" x="49">
    <animate repeatCount="indefinite" begin="-0.4691358024691358s" dur="1.2345679012345678s" keyTimes="0;1" values="1;0" attributeName="opacity"></animate>
  </rect>
</g><g transform="rotate(223.2 50 50)">
  <rect fill="#34bf49" height="12" width="2" ry="6" rx="1" y="20" x="49">
    <animate repeatCount="indefinite" begin="-0.4567901234567901s" dur="1.2345679012345678s" keyTimes="0;1" values="1;0" attributeName="opacity"></animate>
  </rect>
</g><g transform="rotate(226.8 50 50)">
  <rect fill="#0099e5" height="12" width="2" ry="6" rx="1" y="20" x="49">
    <animate repeatCount="indefinite" begin="-0.4444444444444444s" dur="1.2345679012345678s" keyTimes="0;1" values="1;0" attributeName="opacity"></animate>
  </rect>
</g><g transform="rotate(230.4 50 50)">
  <rect fill="#ff4c4c" height="12" width="2" ry="6" rx="1" y="20" x="49">
    <animate repeatCount="indefinite" begin="-0.43209876543209874s" dur="1.2345679012345678s" keyTimes="0;1" values="1;0" attributeName="opacity"></animate>
  </rect>
</g><g transform="rotate(234 50 50)">
  <rect fill="#34bf49" height="12" width="2" ry="6" rx="1" y="20" x="49">
    <animate repeatCount="indefinite" begin="-0.41975308641975306s" dur="1.2345679012345678s" keyTimes="0;1" values="1;0" attributeName="opacity"></animate>
  </rect>
</g><g transform="rotate(237.6 50 50)">
  <rect fill="#0099e5" height="12" width="2" ry="6" rx="1" y="20" x="49">
    <animate repeatCount="indefinite" begin="-0.4074074074074074s" dur="1.2345679012345678s" keyTimes="0;1" values="1;0" attributeName="opacity"></animate>
  </rect>
</g><g transform="rotate(241.2 50 50)">
  <rect fill="#ff4c4c" height="12" width="2" ry="6" rx="1" y="20" x="49">
    <animate repeatCount="indefinite" begin="-0.3950617283950617s" dur="1.2345679012345678s" keyTimes="0;1" values="1;0" attributeName="opacity"></animate>
  </rect>
</g><g transform="rotate(244.8 50 50)">
  <rect fill="#34bf49" height="12" width="2" ry="6" rx="1" y="20" x="49">
    <animate repeatCount="indefinite" begin="-0.38271604938271603s" dur="1.2345679012345678s" keyTimes="0;1" values="1;0" attributeName="opacity"></animate>
  </rect>
</g><g transform="rotate(248.4 50 50)">
  <rect fill="#0099e5" height="12" width="2" ry="6" rx="1" y="20" x="49">
    <animate repeatCount="indefinite" begin="-0.37037037037037035s" dur="1.2345679012345678s" keyTimes="0;1" values="1;0" attributeName="opacity"></animate>
  </rect>
</g><g transform="rotate(252 50 50)">
  <rect fill="#ff4c4c" height="12" width="2" ry="6" rx="1" y="20" x="49">
    <animate repeatCount="indefinite" begin="-0.35802469135802467s" dur="1.2345679012345678s" keyTimes="0;1" values="1;0" attributeName="opacity"></animate>
  </rect>
</g><g transform="rotate(255.6 50 50)">
  <rect fill="#34bf49" height="12" width="2" ry="6" rx="1" y="20" x="49">
    <animate repeatCount="indefinite" begin="-0.345679012345679s" dur="1.2345679012345678s" keyTimes="0;1" values="1;0" attributeName="opacity"></animate>
  </rect>
</g><g transform="rotate(259.2 50 50)">
  <rect fill="#0099e5" height="12" width="2" ry="6" rx="1" y="20" x="49">
    <animate repeatCount="indefinite" begin="-0.3333333333333333s" dur="1.2345679012345678s" keyTimes="0;1" values="1;0" attributeName="opacity"></animate>
  </rect>
</g><g transform="rotate(262.8 50 50)">
  <rect fill="#ff4c4c" height="12" width="2" ry="6" rx="1" y="20" x="49">
    <animate repeatCount="indefinite" begin="-0.32098765432098764s" dur="1.2345679012345678s" keyTimes="0;1" values="1;0" attributeName="opacity"></animate>
  </rect>
</g><g transform="rotate(266.4 50 50)">
  <rect fill="#34bf49" height="12" width="2" ry="6" rx="1" y="20" x="49">
    <animate repeatCount="indefinite" begin="-0.30864197530864196s" dur="1.2345679012345678s" keyTimes="0;1" values="1;0" attributeName="opacity"></animate>
  </rect>
</g><g transform="rotate(270 50 50)">
  <rect fill="#0099e5" height="12" width="2" ry="6" rx="1" y="20" x="49">
    <animate repeatCount="indefinite" begin="-0.2962962962962963s" dur="1.2345679012345678s" keyTimes="0;1" values="1;0" attributeName="opacity"></animate>
  </rect>
</g><g transform="rotate(273.6 50 50)">
  <rect fill="#ff4c4c" height="12" width="2" ry="6" rx="1" y="20" x="49">
    <animate repeatCount="indefinite" begin="-0.2839506172839506s" dur="1.2345679012345678s" keyTimes="0;1" values="1;0" attributeName="opacity"></animate>
  </rect>
</g><g transform="rotate(277.2 50 50)">
  <rect fill="#34bf49" height="12" width="2" ry="6" rx="1" y="20" x="49">
    <animate repeatCount="indefinite" begin="-0.2716049382716049s" dur="1.2345679012345678s" keyTimes="0;1" values="1;0" attributeName="opacity"></animate>
  </rect>
</g><g transform="rotate(280.8 50 50)">
  <rect fill="#0099e5" height="12" width="2" ry="6" rx="1" y="20" x="49">
    <animate repeatCount="indefinite" begin="-0.25925925925925924s" dur="1.2345679012345678s" keyTimes="0;1" values="1;0" attributeName="opacity"></animate>
  </rect>
</g><g transform="rotate(284.4 50 50)">
  <rect fill="#ff4c4c" height="12" width="2" ry="6" rx="1" y="20" x="49">
    <animate repeatCount="indefinite" begin="-0.24691358024691357s" dur="1.2345679012345678s" keyTimes="0;1" values="1;0" attributeName="opacity"></animate>
  </rect>
</g><g transform="rotate(288 50 50)">
  <rect fill="#34bf49" height="12" width="2" ry="6" rx="1" y="20" x="49">
    <animate repeatCount="indefinite" begin="-0.2345679012345679s" dur="1.2345679012345678s" keyTimes="0;1" values="1;0" attributeName="opacity"></animate>
  </rect>
</g><g transform="rotate(291.6 50 50)">
  <rect fill="#0099e5" height="12" width="2" ry="6" rx="1" y="20" x="49">
    <animate repeatCount="indefinite" begin="-0.2222222222222222s" dur="1.2345679012345678s" keyTimes="0;1" values="1;0" attributeName="opacity"></animate>
  </rect>
</g><g transform="rotate(295.2 50 50)">
  <rect fill="#ff4c4c" height="12" width="2" ry="6" rx="1" y="20" x="49">
    <animate repeatCount="indefinite" begin="-0.20987654320987653s" dur="1.2345679012345678s" keyTimes="0;1" values="1;0" attributeName="opacity"></animate>
  </rect>
</g><g transform="rotate(298.8 50 50)">
  <rect fill="#34bf49" height="12" width="2" ry="6" rx="1" y="20" x="49">
    <animate repeatCount="indefinite" begin="-0.19753086419753085s" dur="1.2345679012345678s" keyTimes="0;1" values="1;0" attributeName="opacity"></animate>
  </rect>
</g><g transform="rotate(302.4 50 50)">
  <rect fill="#0099e5" height="12" width="2" ry="6" rx="1" y="20" x="49">
    <animate repeatCount="indefinite" begin="-0.18518518518518517s" dur="1.2345679012345678s" keyTimes="0;1" values="1;0" attributeName="opacity"></animate>
  </rect>
</g><g transform="rotate(306 50 50)">
  <rect fill="#ff4c4c" height="12" width="2" ry="6" rx="1" y="20" x="49">
    <animate repeatCount="indefinite" begin="-0.1728395061728395s" dur="1.2345679012345678s" keyTimes="0;1" values="1;0" attributeName="opacity"></animate>
  </rect>
</g><g transform="rotate(309.6 50 50)">
  <rect fill="#34bf49" height="12" width="2" ry="6" rx="1" y="20" x="49">
    <animate repeatCount="indefinite" begin="-0.16049382716049382s" dur="1.2345679012345678s" keyTimes="0;1" values="1;0" attributeName="opacity"></animate>
  </rect>
</g><g transform="rotate(313.2 50 50)">
  <rect fill="#0099e5" height="12" width="2" ry="6" rx="1" y="20" x="49">
    <animate repeatCount="indefinite" begin="-0.14814814814814814s" dur="1.2345679012345678s" keyTimes="0;1" values="1;0" attributeName="opacity"></animate>
  </rect>
</g><g transform="rotate(316.8 50 50)">
  <rect fill="#ff4c4c" height="12" width="2" ry="6" rx="1" y="20" x="49">
    <animate repeatCount="indefinite" begin="-0.13580246913580246s" dur="1.2345679012345678s" keyTimes="0;1" values="1;0" attributeName="opacity"></animate>
  </rect>
</g><g transform="rotate(320.4 50 50)">
  <rect fill="#34bf49" height="12" width="2" ry="6" rx="1" y="20" x="49">
    <animate repeatCount="indefinite" begin="-0.12345679012345678s" dur="1.2345679012345678s" keyTimes="0;1" values="1;0" attributeName="opacity"></animate>
  </rect>
</g><g transform="rotate(324 50 50)">
  <rect fill="#0099e5" height="12" width="2" ry="6" rx="1" y="20" x="49">
    <animate repeatCount="indefinite" begin="-0.1111111111111111s" dur="1.2345679012345678s" keyTimes="0;1" values="1;0" attributeName="opacity"></animate>
  </rect>
</g><g transform="rotate(327.6 50 50)">
  <rect fill="#ff4c4c" height="12" width="2" ry="6" rx="1" y="20" x="49">
    <animate repeatCount="indefinite" begin="-0.09876543209876543s" dur="1.2345679012345678s" keyTimes="0;1" values="1;0" attributeName="opacity"></animate>
  </rect>
</g><g transform="rotate(331.2 50 50)">
  <rect fill="#34bf49" height="12" width="2" ry="6" rx="1" y="20" x="49">
    <animate repeatCount="indefinite" begin="-0.08641975308641975s" dur="1.2345679012345678s" keyTimes="0;1" values="1;0" attributeName="opacity"></animate>
  </rect>
</g><g transform="rotate(334.8 50 50)">
  <rect fill="#0099e5" height="12" width="2" ry="6" rx="1" y="20" x="49">
    <animate repeatCount="indefinite" begin="-0.07407407407407407s" dur="1.2345679012345678s" keyTimes="0;1" values="1;0" attributeName="opacity"></animate>
  </rect>
</g><g transform="rotate(338.4 50 50)">
  <rect fill="#ff4c4c" height="12" width="2" ry="6" rx="1" y="20" x="49">
    <animate repeatCount="indefinite" begin="-0.06172839506172839s" dur="1.2345679012345678s" keyTimes="0;1" values="1;0" attributeName="opacity"></animate>
  </rect>
</g><g transform="rotate(342 50 50)">
  <rect fill="#34bf49" height="12" width="2" ry="6" rx="1" y="20" x="49">
    <animate repeatCount="indefinite" begin="-0.04938271604938271s" dur="1.2345679012345678s" keyTimes="0;1" values="1;0" attributeName="opacity"></animate>
  </rect>
</g><g transform="rotate(345.6 50 50)">
  <rect fill="#0099e5" height="12" width="2" ry="6" rx="1" y="20" x="49">
    <animate repeatCount="indefinite" begin="-0.037037037037037035s" dur="1.2345679012345678s" keyTimes="0;1" values="1;0" attributeName="opacity"></animate>
  </rect>
</g><g transform="rotate(349.2 50 50)">
  <rect fill="#ff4c4c" height="12" width="2" ry="6" rx="1" y="20" x="49">
    <animate repeatCount="indefinite" begin="-0.024691358024691357s" dur="1.2345679012345678s" keyTimes="0;1" values="1;0" attributeName="opacity"></animate>
  </rect>
</g><g transform="rotate(352.8 50 50)">
  <rect fill="#34bf49" height="12" width="2" ry="6" rx="1" y="20" x="49">
    <animate repeatCount="indefinite" begin="-0.012345679012345678s" dur="1.2345679012345678s" keyTimes="0;1" values="1;0" attributeName="opacity"></animate>
  </rect>
</g><g transform="rotate(356.4 50 50)">
  <rect fill="#0099e5" height="12" width="2" ry="6" rx="1" y="20" x="49">
    <animate repeatCount="indefinite" begin="0s" dur="1.2345679012345678s" keyTimes="0;1" values="1;0" attributeName="opacity"></animate>
  </rect>
</g><g></g></g></svg>